<?xml version="1.0" encoding="UTF-8" standalone="no"?>
<svg
   width="40"
   height="40"
   id="footsteps"
   version="1.1"
   sodipodi:docname="footsteps.svg"
   inkscape:version="1.3.2 (091e20ef0f, 2023-11-25, custom)"
   xmlns:inkscape="http://www.inkscape.org/namespaces/inkscape"
   xmlns:sodipodi="http://sodipodi.sourceforge.net/DTD/sodipodi-0.dtd"
   xmlns:xlink="http://www.w3.org/1999/xlink"
   xmlns="http://www.w3.org/2000/svg"
   xmlns:svg="http://www.w3.org/2000/svg">
  <defs
     id="defs1" />
  <sodipodi:namedview
     id="namedview1"
     pagecolor="#505050"
     bordercolor="#eeeeee"
     borderopacity="1"
     inkscape:showpageshadow="0"
     inkscape:pageopacity="0"
     inkscape:pagecheckerboard="0"
     inkscape:deskcolor="#d1d1d1"
     inkscape:zoom="19.875"
     inkscape:cx="20"
     inkscape:cy="19.974843"
     inkscape:window-width="1854"
     inkscape:window-height="1134"
     inkscape:window-x="0"
     inkscape:window-y="0"
     inkscape:window-maximized="1"
     inkscape:current-layer="footsteps" />
  <rect
     style="fill:#ffffff;stroke:none;stroke-width:3.77953;stroke-linecap:round;stroke-linejoin:bevel"
     id="rect1"
     width="32"
     height="32"
     x="2.409198"
     y="3.3696933"
     rx="6.7368422"
     ry="6.7368422"
     transform="matrix(1.1875,0,0,1.1875,-1.8609227,-3.0015108)" />
  <g
     id="shoeprints">
    <path
       id="original"
       d="M 13.01798,25.39451 C 12.77399,25.64089 7.253,23.65425 7.18568,23.16408 6.35644,17.1269 10.30763,12.32575 14.15474,12.10585 c 4.51136,-0.25788 3.02218,9.08888 -1.13676,13.28866 z m -6.24402,9.15377 c -1.75334,-0.64849 -2.22119,-3.43642 -1.02572,-7.0593 0.23575,-0.71443 6.23884,1.28298 6.15248,1.91291 -0.6586,4.80359 -3.37343,5.79488 -5.12676,5.14639 z" />
    <use
       xlink:href="#original"
       id="copy"
       transform="matrix(-0.60808092,-0.79387506,-0.79387506,0.60808092,52.157707,10.212769)" />
  </g>
</svg>
